<svg height="240" id="svg1" version="1.1" viewBox="0 0 240 240" width="240" xml:space="preserve" xmlns="http://www.w3.org/2000/svg" xmlns:svg="http://www.w3.org/2000/svg">
  <defs id="defs1"></defs>
  <g id="layer1" style="display:inline">
    <rect height="27.865421" id="rect4" ry="2.6655333" style="display:inline;fill:#000000" transform="rotate(-45)" width="43.264103" x="-21.213203" y="155.56349"></rect>
    <path d="m 96.14431,89.739625 c -5.618947,7.907229 -10.619162,16.642705 -12.413405,26.152425 -1.702627,9.02414 -0.03896,19.04831 4.865109,27.04776 4.462708,6.3515 12.086656,9.82992 19.762086,9.81329 10.36116,0.37275 19.68604,-5.59867 27.3136,-12.02676 2.99345,-2.17776 8.4867,-9.15569 9.2499,-8.80673 -3.69581,9.97035 -10.89515,18.16665 -18.70435,25.17419 -7.74373,5.43085 -15.87232,11.64849 -25.72336,12.03869 -7.022449,0.81025 -14.326452,0.70201 -20.819439,-2.459 -5.324585,-2.0667 -9.984048,-5.63238 -12.795902,-10.67241 -5.18278,-7.6853 -6.570602,-17.28584 -6.755375,-26.36704 0.07185,-16.9013 3.77618,-34.006803 12.344361,-48.579087 0.982184,-1.670443 3.170415,-4.878399 4.573693,-6.907722 0.700073,-1.012398 1.987619,-1.131206 2.868685,-0.270312 z" id="path518" style="display:inline;fill:#000000"></path>
    <path d="m 96.14431,89.739625 c -5.618947,7.907229 -10.619162,16.642705 -12.413405,26.152425 -1.702627,9.02414 -0.03896,19.04831 4.865109,27.04776 4.462708,6.3515 12.086656,9.82992 19.762086,9.81329 10.36116,0.37275 19.68604,-5.59867 27.3136,-12.02676 2.99345,-2.17776 8.4867,-9.15569 9.2499,-8.80673 -3.69581,9.97035 -10.89515,18.16665 -18.70435,25.17419 -7.74373,5.43085 -15.87232,11.64849 -25.72336,12.03869 -7.022449,0.81025 -14.326452,0.70201 -20.819439,-2.459 -5.324585,-2.0667 -9.984048,-5.63238 -12.795902,-10.67241 -5.18278,-7.6853 -6.570602,-17.28584 -6.755375,-26.36704 0.07185,-16.9013 3.77618,-34.006803 12.344361,-48.579087 0.982184,-1.670443 3.170415,-4.878399 4.573693,-6.907722 0.700073,-1.012398 1.987619,-1.131206 2.868685,-0.270312 z" id="path521" style="display:inline;fill:#000000" transform="rotate(-179.98351,119.43283,120.17427)"></path>
  </g>
</svg>
