<svg height="240" id="svg1" version="1.1" viewBox="0 0 240 240" width="240" xml:space="preserve" xmlns="http://www.w3.org/2000/svg" xmlns:svg="http://www.w3.org/2000/svg">
  <defs id="defs1"></defs>
  <g id="layer1" style="display:inline">
    <path d="M 120,71.517578 A 23.141361,23.141361 0 0 0 96.859375,94.660156 23.141361,23.141361 0 0 0 120,117.80078 23.141361,23.141361 0 0 0 143.14062,94.660156 23.141361,23.141361 0 0 0 120,71.517578 Z m 0,2.212891 A 20.929317,20.929317 0 0 1 140.92969,94.660156 20.929317,20.929317 0 0 1 120,115.58984 20.929317,20.929317 0 0 1 99.070312,94.660156 20.929317,20.929317 0 0 1 120,73.730469 Z" id="path1" style="display:inline;fill:#000000;stroke-width:0.920833"></path>
    <path d="m 125.08294,90.342653 -0.087,4.899986 a 1.4942072,1.4942072 66.558203 0 0 0.49223,1.135194 l 6.39624,5.779337 a 0.53273581,0.53273581 177.28929 0 0 0.75006,-0.0355 l 2.011,-2.196222 a 0.68123972,0.68123972 88.417682 0 0 -0.0262,-0.947146 l -9.04017,-8.839283 a 0.29206375,0.29206375 157.6866 0 0 -0.49621,0.203644 z" id="path3" style="display:inline;fill:#000000"></path>
    <path d="m 106.7248,80.673142 26.53233,0.103777 a 0.91161416,0.91161416 45.112051 0 1 0.90805,0.911607 v 2.425959 a 1.0258059,1.0258059 135.24174 0 1 -1.03446,1.02577 l -7.00233,-0.05909 a 1.5323271,1.5323271 154.78867 0 0 -1.20219,0.565999 l -1.78647,2.198736 a 2.8275445,2.8275445 109.45533 0 0 -0.63303,1.792069 l 0.0687,21.475811 a 0.69900262,0.69900262 134.46795 0 1 -0.68825,0.70116 l -3.44176,0.0529 a 0.67288294,0.67288294 44.447052 0 1 -0.68322,-0.67016 l -0.0697,-17.761612 a 0.16595648,0.16595648 22.226855 0 0 -0.28396,-0.116037 l -9.10375,9.206429 a 0.62106528,0.62106528 1.2626652 0 1 -0.90204,-0.0199 l -2.30281,-2.543787 a 0.68983904,0.68983904 91.423308 0 1 0.0236,-0.950753 l 13.66666,-13.666661 a 0.11461926,0.11461926 67.419979 0 0 -0.0814,-0.195667 l -12.15809,0.03396 a 0.80880348,0.80880348 45.154154 0 1 -0.81104,-0.815412 l 0.0224,-2.743938 a 0.95903671,0.95903671 135.34622 0 1 0.96276,-0.95119 z" id="path4" style="display:inline;fill:#000000"></path>
    <path d="m 120,121 c -12.78004,4.1e-4 -23.140216,10.36058 -23.140625,23.14062 -6.73e-4,12.78081 10.359815,23.14217 23.140625,23.14258 12.78081,-4.1e-4 23.14129,-10.36177 23.14062,-23.14258 C 143.14021,131.36058 132.78004,121.00041 120,121 Z m -5.35191,7 h 3.34808 A 1.0038296,1.0038296 45 0 1 119,129.00383 v 11.04043 A 0.95574443,0.95574443 135 0 1 118.04426,141 H 105.4 a 0.4,0.4 45 0 1 -0.4,-0.4 v -3.07021 A 0.52978703,0.52978703 135 0 1 105.52979,137 h 7.9 A 0.57021297,0.57021297 135 0 0 114,136.42979 V 135.8 a 0.8,0.8 45 0 0 -0.8,-0.8 h -6.82596 A 0.37404259,0.37404259 45 0 1 106,134.62596 v -1.97405 A 0.65191481,0.65191481 135 0 1 106.65191,132 H 114 v -3.35191 A 0.64808519,0.64808519 135 0 1 114.64809,128 Z m 7.74682,0 h 4.06635 A 0.53874304,0.53874304 45 0 1 127,128.53874 l 0,3.46706 a 0.24554503,0.24554503 36.280335 0 0 0.31913,0.23426 L 129,131.71204 l 2.94764,-0.89529 1.95395,-0.66931 a 0.32520607,0.32520607 35.536181 0 1 0.43059,0.30755 l 6.8e-4,2.01748 a 0.68013882,0.68013882 126.66016 0 1 -0.48514,0.65182 L 130.92147,134 l -3.65614,0.93234 A 0.35241122,0.35241122 127.84705 0 0 127,135.27382 v 2.27854 A 0.44764398,0.44764398 45 0 0 127.44764,138 h 4.09058 A 0.46178011,0.46178011 135 0 0 132,137.53822 v -1.18586 A 0.35235602,0.35235602 135 0 1 132.35236,136 h 2.09528 A 0.55235602,0.55235602 45 0 1 135,136.55236 v 3.95389 A 0.49375467,0.49375467 135 0 1 134.50625,141 h -12.11134 a 0.44764398,0.44764398 45 0 1 -0.44764,-0.44764 V 128.44764 A 0.44764398,0.44764398 135 0 1 122.39491,128 Z m -12.45363,15 h 20.36936 A 0.68936108,0.68936108 45 0 1 131,143.68936 v 16.7366 A 0.57404259,0.57404259 135 0 1 130.42596,161 h -3.93745 a 0.7904252,0.7904252 31.717474 0 1 -0.70698,-0.43694 L 125,159 l -1,-1 h 1.39234 A 0.60765924,0.60765924 135 0 0 126,157.39234 V 146.97787 A 0.97787222,0.97787222 45 0 0 125.02213,146 H 114.57404 A 0.57404259,0.57404259 135 0 0 114,146.57404 l 0,1.04426 A 0.38170184,0.38170184 45 0 0 114.3817,148 h 8.02213 A 0.59617038,0.59617038 45 0 1 123,148.59617 v 1.94809 A 0.45574443,0.45574443 135 0 1 122.54426,151 l -7.94809,0 A 0.59617038,0.59617038 135 0 0 114,151.59617 v 1.8 A 0.60382962,0.60382962 45 0 0 114.60383,154 h 7.82596 A 0.57021297,0.57021297 45 0 1 123,154.57021 v 0.9 A 0.52978703,0.52978703 135 0 1 122.47021,156 h -7.67404 A 0.79617038,0.79617038 135 0 0 114,156.79617 V 160.5 a 0.5,0.5 135 0 1 -0.5,0.5 h -4.10681 A 0.3931907,0.3931907 45 0 1 109,160.60681 V 143.94128 A 0.94127589,0.94127589 135 0 1 109.94128,143 Z" id="path1-2" style="display:inline;opacity:0.5;fill:#000000;stroke-width:0.920833"></path>
  </g>
</svg>
