<svg height="240" id="svg1" version="1.1" viewBox="0 0 240 240" width="240" xml:space="preserve" xmlns="http://www.w3.org/2000/svg" xmlns:svg="http://www.w3.org/2000/svg">
  <defs id="defs1"></defs>
  <g id="layer1" style="display:inline">
    <path d="m 169.11329,63.528546 c -7.08493,-2.28263 -14.9127,-4.378679 -22.27497,-2.210558 -7.45125,2.627772 -11.45714,10.790008 -10.64292,18.379164 0.55498,5.724102 -0.47994,11.508789 -3.28607,16.555095 -4.15606,8.905933 -12.37577,14.968003 -21.06111,19.061363 -6.52153,3.31241 -12.871657,6.94284 -19.588129,9.85857 -7.89884,4.27719 -12.196123,8.91792 -16.455476,16.74622 -3.18145,5.40011 -4.686008,14.38149 -4.131383,20.38297 2.423085,-7.48958 5.29245,-15.39927 11.821524,-20.32116 8.680704,-7.48873 19.302524,-9.49679 30.571374,-10.62834 10.29618,-1.50021 21.89952,-2.90762 31.1859,-8.27909 10.01927,-4.17154 15.92009,-15.86552 13.63664,-26.404237 -2.19676,-5.991104 -4.81369,-11.927328 -5.90891,-18.247901 -0.51341,-5.463466 2.33058,-11.798589 8.11747,-13.092368 2.60259,-0.866985 5.3023,-1.420213 8.01606,-1.799728 z" id="path1" style="display:inline;opacity:0.5;fill:#000000"></path>
    <path d="m 128.58639,171.72775 c 3.30725,-4.10506 5.00096,-9.25812 5.0143,-14.51729 0.53518,-5.1697 -2.39808,-9.6807 -6.09413,-12.98269 -1.6965,-1.66685 4.11548,-0.69128 5.45741,-1.40757 7.58338,-0.89073 15.642,-2.56488 21.16575,-8.28441 5.50352,-5.03467 5.57872,-12.99348 6.04954,-19.89143 0.0916,-2.421 -2.52317,2.84734 -3.6782,3.60121 -3.55395,4.57256 -8.03804,8.55172 -13.62299,10.38866 -9.17415,3.46437 -18.8805,5.07808 -28.56729,6.3251 -6.89852,1.42867 -13.99232,2.0143 -20.745287,4.08361 -7.896506,2.864 -15.281582,8.36982 -18.524312,16.3479 -1.234075,2.64678 -2.306836,7.78155 -2.540962,9.26251 3.808581,-5.35363 6.625839,-11.58699 13.08973,-13.96132 3.095606,-1.22829 7.417985,-3.20552 10.006774,-3.39243 -2.071831,5.62568 -3.90154,11.42561 -2.882791,17.45075 1.055791,6.24422 6.02878,10.85326 11.481298,13.60324 6.29751,2.75538 15.10777,2.5973 19.42199,-3.51206 3.16267,-3.79815 4.78292,-9.9152 2.47581,-14.44825 -0.82223,-1.61554 -2.05665,-4.46478 -3.26244,-1.13241 -2.30621,4.35806 -9.11065,2.54932 -9.95239,-1.95465 -1.80808,-4.39782 2.18167,-8.99542 6.5875,-9.22778 5.25493,-0.0739 11.89964,8.77325 10.72342,14.15137 -0.67488,4.32435 -0.3288,5.35601 -1.60273,9.49794 z" id="path2" style="display:inline;fill:#000000"></path>
  </g>
</svg>
